<?xml version="1.0" encoding="UTF-8" standalone="no"?>
<!-- Created with Inkscape (http://www.inkscape.org/) -->

<svg
   xmlns:dc="http://purl.org/dc/elements/1.1/"
   xmlns:cc="http://creativecommons.org/ns#"
   xmlns:rdf="http://www.w3.org/1999/02/22-rdf-syntax-ns#"
   xmlns:svg="http://www.w3.org/2000/svg"
   xmlns="http://www.w3.org/2000/svg"
   xmlns:sodipodi="http://sodipodi.sourceforge.net/DTD/sodipodi-0.dtd"
   xmlns:inkscape="http://www.inkscape.org/namespaces/inkscape"
   width="591.91998mm"
   height="155.80463mm"
   viewBox="0 0 2097.3543 552.06363"
   id="svg4503"
   version="1.1"
   inkscape:version="0.91 r13725"
   sodipodi:docname="logo2.svg"
   inkscape:export-filename="/home/bastien/g4476.png"
   inkscape:export-xdpi="300"
   inkscape:export-ydpi="300">
  <defs
     id="defs4505" />
  <sodipodi:namedview
     id="base"
     pagecolor="#ffffff"
     bordercolor="#666666"
     borderopacity="1.0"
     inkscape:pageopacity="0.0"
     inkscape:pageshadow="2"
     inkscape:zoom="0.35"
     inkscape:cx="1147.0801"
     inkscape:cy="217.58802"
     inkscape:document-units="px"
     inkscape:current-layer="layer2"
     showgrid="false"
     fit-margin-top="0"
     fit-margin-left="0"
     fit-margin-right="0"
     fit-margin-bottom="0"
     inkscape:window-width="1366"
     inkscape:window-height="750"
     inkscape:window-x="0"
     inkscape:window-y="18"
     inkscape:window-maximized="1" />
  <metadata
     id="metadata4508">
    <rdf:RDF>
      <cc:Work
         rdf:about="">
        <dc:format>image/svg+xml</dc:format>
        <dc:type
           rdf:resource="http://purl.org/dc/dcmitype/StillImage" />
        <dc:title></dc:title>
      </cc:Work>
    </rdf:RDF>
  </metadata>
  <g
     inkscape:groupmode="layer"
     id="layer2"
     inkscape:label="Fond"
     style="display:none">
    <rect
       style="opacity:1;fill:#000000;fill-opacity:1;stroke:none;stroke-width:2;stroke-linecap:butt;stroke-linejoin:miter;stroke-miterlimit:4;stroke-dasharray:none;stroke-dashoffset:0;stroke-opacity:1"
       id="rect5093"
       width="2098"
       height="553"
       x="0"
       y="-0.93638557"
       ry="0" />
  </g>
  <g
     inkscape:label="Calque 1"
     inkscape:groupmode="layer"
     id="layer1"
     transform="translate(82.962852,26.526768)"
     style="display:inline">
    <path
       style="fill:#ffffff;fill-rule:evenodd;stroke:#000000;stroke-width:0.50000006;stroke-linecap:butt;stroke-linejoin:miter;stroke-miterlimit:4;stroke-dasharray:none;stroke-opacity:1"
       d="m 1854.1414,205.28684 a 159.99999,159.99998 0 0 0 -160,160 159.99999,159.99998 0 0 0 160,160.00005 159.99999,159.99998 0 0 0 160,-160.00005 159.99999,159.99998 0 0 0 -160,-160 z m -70.5234,61.61523 a 20.126952,20.126951 0 0 1 20.1269,20.12696 20.126952,20.126951 0 0 1 -20.1269,20.12695 20.126952,20.126951 0 0 1 -20.127,-20.12695 20.126952,20.126951 0 0 1 20.127,-20.12696 z"
       id="path3403"
       inkscape:connector-curvature="0" />
    <path
       style="opacity:1;fill:#ffffff;fill-opacity:1;fill-rule:nonzero;stroke:#000000;stroke-width:0.50000006;stroke-miterlimit:4;stroke-dasharray:none;stroke-opacity:1"
       d="M 1691.2643,520.37679 C 1293.5165,497.91409 1010.2044,459.36899 732.79692,389.97567 396.08383,305.74712 122.73116,178.06948 -27.5454,34.83482 -52.87703,10.69021 -84.49676,-24.34868 -82.63434,-26.2111 c 0.539,-0.539 7.49807,2.31032 15.46461,6.33181 25.83996,13.04397 80.55763,35.64184 122.62447,50.64272 397.92571,141.89881 989.89686,205.10929 1667.24416,178.02775 l 37.4797,-1.49851 -15.4587,7.50688 c -31.056,15.08093 -58.1867,51.77536 -70.817,95.78055 -7.2682,25.32323 -7.8779,82.74648 -1.1409,107.46629 11.34,41.6096 36.6197,78.4623 65.512,95.503 l 14.366,8.4731 -24.0382,-0.4473 c -13.221,-0.246 -30.0229,-0.7853 -37.3375,-1.1984 z"
       id="path5264"
       inkscape:connector-curvature="0" />
    <text
       xml:space="preserve"
       style="font-style:normal;font-weight:normal;font-size:40px;line-height:100%;font-family:sans-serif;letter-spacing:0px;word-spacing:0px;display:inline;fill:#000000;fill-opacity:1;stroke:none;stroke-width:1px;stroke-linecap:butt;stroke-linejoin:miter;stroke-opacity:1"
       x="859.42474"
       y="115.7788"
       id="text3380"
       sodipodi:linespacing="100%"><tspan
         sodipodi:role="line"
         x="859.42474"
         y="115.7788"
         style="font-style:oblique;font-variant:normal;font-weight:normal;font-stretch:normal;font-size:125.00000763px;line-height:100%;font-family:'Latin Modern Mono Caps';-inkscape-font-specification:'Latin Modern Mono Caps, Oblique';text-align:start;writing-mode:lr-tb;text-anchor:start;fill:#ffffff"
         id="tspan3654">Projet C.U.B.I</tspan></text>
  </g>
</svg>
